<svg width="50" height="23" viewBox="0 0 50 23" fill="none" xmlns="http://www.w3.org/2000/svg">
  <path d="M5.36938 7.75978C3.29347 8.51535 0.9981 7.445 0.242531 5.36909C-0.51304 3.29318 0.557307 0.997813 2.63322 0.242242C4.70913 -0.513328 7.0045 0.557019 7.76007 2.63293C8.51564 4.70884 7.44529 7.00421 5.36938 7.75978ZM21.6896 14.5898C18.0568 15.9121 14.0399 14.039 12.7176 10.4061C11.3954 6.77328 13.2685 2.75638 16.9013 1.43414C20.5342 0.111889 24.5511 1.985 25.8733 5.61784C27.1956 9.25069 25.3225 13.2676 21.6896 14.5898ZM42.4527 21.9312C37.2629 23.8201 31.5245 21.1442 29.6356 15.9545C27.7466 10.7647 30.4225 5.02626 35.6123 3.13734C40.8021 1.24841 46.5405 3.92428 48.4294 9.11406C50.3183 14.3038 47.6425 20.0423 42.4527 21.9312Z" fill="#FEBD1F"/>
</svg>
