<svg width="50" height="23" viewBox="0 0 50 23" fill="none" xmlns="http://www.w3.org/2000/svg">
  <path d="M43.6658 14.7771C45.7417 14.0215 48.0371 15.0919 48.7926 17.1678C49.5482 19.2437 48.4779 21.5391 46.4019 22.2946C44.326 23.0502 42.0307 21.9798 41.2751 19.9039C40.5195 17.828 41.5899 15.5327 43.6658 14.7771ZM27.3455 7.94703C30.9784 6.62478 34.9953 8.49789 36.3175 12.1307C37.6398 15.7636 35.7667 19.7805 32.1338 21.1027C28.501 22.425 24.4841 20.5519 23.1618 16.919C21.8396 13.2862 23.7127 9.26928 27.3455 7.94703ZM6.58247 0.605677C11.7723 -1.28325 17.5107 1.39262 19.3996 6.5824C21.2885 11.7722 18.6127 17.5106 13.4229 19.3995C8.2331 21.2885 2.49467 18.6126 0.605748 13.4228C-1.28318 8.23303 1.39269 2.4946 6.58247 0.605677Z" fill="#304890"/>
</svg>
